<?xml version="1.0" encoding="UTF-8"?>
<svg width="64" height="64" version="1.1" viewBox="0 0 64 64" xmlns="http://www.w3.org/2000/svg">
 <!-- White keycap -->
 <path d="M12,4 L52,4 A8,8 90 0,1 60,12 L60,52 A8,8 90 0,1 52,60 L12,60 A8,8 90 0,1 4,52 L4,12 A8,8 90 0,1 12,4Z" fill="#fff"/>
 
 <!-- ESC lettering (same paths, just centered better) -->
 <g fill="#000" transform="translate(6.5, 20) scale(0.52)">
   <path d="M0 45.26L0 9.47L25.88 9.47L25.88 13.70L4.74 13.70L4.74 24.66L24.54 24.66L24.54 28.86L4.74 28.86L4.74 41.04L26.71 41.04L26.71 45.26L0 45.26ZM31.64 33.76L36.11 33.37Q36.43 36.06 37.59 37.78Q38.75 39.50 41.19 40.56Q43.63 41.63 46.68 41.63Q49.39 41.63 51.46 40.82Q53.54 40.01 54.55 38.61Q55.57 37.21 55.57 35.55Q55.57 33.86 54.59 32.60Q53.61 31.35 51.37 30.49Q49.93 29.93 45.00 28.75Q40.06 27.56 38.09 26.51Q35.52 25.17 34.27 23.18Q33.01 21.19 33.01 18.73Q33.01 16.02 34.55 13.66Q36.08 11.30 39.04 10.08Q41.99 8.86 45.61 8.86Q49.58 8.86 52.62 10.14Q55.66 11.43 57.30 13.92Q58.94 16.41 59.06 19.56L54.52 19.90Q54.15 16.50 52.04 14.77Q49.93 13.04 45.80 13.04Q41.50 13.04 39.54 14.61Q37.57 16.19 37.57 18.41Q37.57 20.34 38.96 21.58Q40.33 22.83 46.11 24.13Q51.88 25.44 54.03 26.42Q57.15 27.86 58.64 30.07Q60.13 32.28 60.13 35.16Q60.13 38.01 58.50 40.54Q56.86 43.07 53.80 44.47Q50.73 45.87 46.90 45.87Q42.04 45.87 38.76 44.46Q35.47 43.04 33.61 40.20Q31.74 37.35 31.64 33.76ZM92.14 32.71L96.88 33.91Q95.39 39.75 91.52 42.81Q87.65 45.87 82.06 45.87Q76.27 45.87 72.64 43.52Q69.02 41.16 67.13 36.69Q65.23 32.23 65.23 27.10Q65.23 21.51 67.37 17.35Q69.51 13.18 73.45 11.02Q77.39 8.86 82.13 8.86Q87.50 8.86 91.16 11.60Q94.82 14.33 96.26 19.29L91.60 20.39Q90.36 16.48 87.99 14.70Q85.62 12.92 82.03 12.92Q77.91 12.92 75.13 14.89Q72.36 16.87 71.24 20.20Q70.12 23.54 70.12 27.08Q70.12 31.64 71.45 35.05Q72.78 38.45 75.59 40.14Q78.39 41.82 81.67 41.82Q85.64 41.82 88.40 39.53Q91.16 37.23 92.14 32.71Z"/>
 </g>
</svg>